:FULLY-SPECIFIED
:FORCE-ALL-JOINTS-BE-3DOF
:DEGREES
272
root 7.78756 15.8975 -25.0071 10.4245 50.9462 4.71557
lfemur -28.7677 20.9931 -17.2436
ltibia 47.0925 0 0
lfoot -17.1727 -13.7839 0
ltoes 53.7633 0 0
rfemur -29.9899 -4.80975 14.5909
rtibia 57.3124 0 0
rfoot 15.3809 -8.45337 0
rtoes 4.53737 0 0
lowerback 4.25091 -2.81448 -3.41691
upperback 1.34205 -3.92437 0.386357
thorax -0.698442 -1.9594 2.48666
lowerneck -8.3149 -8.52416 -1.94296
upperneck 0.552285 -11.2048 4.36023
head 2.04926 -5.54083 1.23546
lclavicle -1.54962e-14 -4.95155e-15 0
lhumerus -48.3168 -36.9824 112.219
lradius 60.6511 0 0
lwrist 20.2925 0 0
lhand 9.20265 12.1531 0
lfingers 7.12502 0 0
lthumb 34.363 38.7975 0
rclavicle -1.54962e-14 -4.95155e-15 0
rhumerus -39.2461 20.8513 -66.4225
rradius 56.974 0 0
rwrist 29.0076 0 0
rhand -10.2363 -3.27507 0
rfingers 7.12502 0 0
rthumb 15.7255 -752.254 0
273
root 7.82321 15.8845 -24.9724 10.4782 51.1526 5.03289
lfemur -28.4125 20.9379 -17.2636
ltibia 47.236 0 0
lfoot -17.1766 -14.1304 0
ltoes 53.9012 0 0
rfemur -30.7052 -5.27605 15.2431
rtibia 57.3258 0 0
rfoot 15.4331 -7.71608 0
rtoes 4.39909 0 0
lowerback 4.40771 -2.82545 -3.56255
upperback 1.45014 -3.94943 0.257886
thorax -0.670623 -1.97285 2.44161
lowerneck -8.23609 -8.57664 -1.95231
upperneck 0.460169 -11.2762 4.54192
head 2.02189 -5.57512 1.2967
lclavicle -1.60076e-14 -5.219e-15 0
lhumerus -48.1479 -37.1409 111.846
lradius 60.6074 0 0
lwrist 20.3239 0 0
lhand 9.32727 12.1331 0
lfingers 7.12502 0 0
lthumb 34.4812 38.7495 0
rclavicle -1.60076e-14 -5.219e-15 0
rhumerus -39.0944 22.2831 -66.4946
rradius 57.6674 0 0
rwrist 28.2912 0 0
rhand -9.78752 -3.34485 0
rfingers 7.12502 0 0
rthumb 16.1568 -752.28 0
274
root 7.85887 15.8715 -24.9376 10.5319 51.359 5.35021
lfemur -28.0572 20.8828 -17.2837
ltibia 47.3795 0 0
lfoot -17.1805 -14.4769 0
ltoes 54.0392 0 0
rfemur -31.4206 -5.74234 15.8952
rtibia 57.3391 0 0
rfoot 15.4853 -6.97878 0
rtoes 4.2608 0 0
lowerback 4.5645 -2.83643 -3.70818
upperback 1.55823 -3.97448 0.129414
thorax -0.642803 -1.98629 2.39656
lowerneck -8.15728 -8.62912 -1.96165
upperneck 0.368052 -11.3477 4.72361
head 1.99453 -5.60941 1.35794
lclavicle -1.6519e-14 -5.48646e-15 0
lhumerus -47.9791 -37.2994 111.473
lradius 60.5637 0 0
lwrist 20.3553 0 0
lhand 9.4519 12.1132 0
lfingers 7.12502 0 0
lthumb 34.5993 38.7015 0
rclavicle -1.6519e-14 -5.48646e-15 0
rhumerus -38.9426 23.715 -66.5666
rradius 58.3609 0 0
rwrist 27.5748 0 0
rhand -9.33872 -3.41463 0
rfingers 7.12502 0 0
rthumb 16.5881 -752.305 0
275
root 7.89453 15.8585 -24.9029 10.5855 51.5655 5.66752
lfemur -27.702 20.8276 -17.3037
ltibia 47.523 0 0
lfoot -17.1845 -14.8234 0
ltoes 54.1772 0 0
rfemur -32.1359 -6.20864 16.5474
rtibia 57.3524 0 0
rfoot 15.5375 -6.24148 0
rtoes 4.12251 0 0
lowerback 4.7213 -2.84741 -3.85382
upperback 1.66632 -3.99954 0.000942364
thorax -0.614984 -1.99974 2.35151
lowerneck -8.07846 -8.68161 -1.97099
upperneck 0.275935 -11.4191 4.9053
head 1.96716 -5.64371 1.41918
lclavicle -1.70304e-14 -5.75391e-15 0
lhumerus -47.8102 -37.4579 111.1
lradius 60.52 0 0
lwrist 20.3867 0 0
lhand 9.57653 12.0933 0
lfingers 7.12502 0 0
lthumb 34.7175 38.6535 0
rclavicle -1.70304e-14 -5.75391e-15 0
rhumerus -38.7909 25.1469 -66.6387
rradius 59.0543 0 0
rwrist 26.8583 0 0
rhand -8.88993 -3.4844 0
rfingers 7.12502 0 0
rthumb 17.0193 -752.331 0
276
root 7.93018 15.8455 -24.8681 10.6392 51.7719 5.98484
lfemur -27.3468 20.7725 -17.3238
ltibia 47.6665 0 0
lfoot -17.1884 -15.1698 0
ltoes 54.3151 0 0
rfemur -32.8512 -6.67494 17.1995
rtibia 57.3657 0 0
rfoot 15.5897 -5.50419 0
rtoes 3.98422 0 0
lowerback 4.87809 -2.85838 -3.99945
upperback 1.77441 -4.02459 -0.127529
thorax -0.587164 -2.01319 2.30646
lowerneck -7.99965 -8.73409 -1.98034
upperneck 0.183819 -11.4906 5.08699
head 1.93979 -5.678 1.48042
lclavicle -1.75418e-14 -6.02137e-15 0
lhumerus -47.6413 -37.6164 110.726
lradius 60.4763 0 0
lwrist 20.4181 0 0
lhand 9.70115 12.0734 0
lfingers 7.12502 0 0
lthumb 34.8357 38.6055 0
rclavicle -1.75418e-14 -6.02137e-15 0
rhumerus -38.6392 26.5787 -66.7108
rradius 59.7477 0 0
rwrist 26.1419 0 0
rhand -8.44114 -3.55418 0
rfingers 7.12502 0 0
rthumb 17.4506 -752.357 0
277
root 7.96584 15.8325 -24.8334 10.6929 51.9783 6.30216
lfemur -26.9915 20.7173 -17.3439
ltibia 47.8101 0 0
lfoot -17.1923 -15.5163 0
ltoes 54.4531 0 0
rfemur -33.5666 -7.14123 17.8517
rtibia 57.379 0 0
rfoot 15.6419 -4.76689 0
rtoes 3.84593 0 0
lowerback 5.03488 -2.86936 -4.14509
upperback 1.8825 -4.04964 -0.256001
thorax -0.559345 -2.02663 2.26141
lowerneck -7.92084 -8.78657 -1.98968
upperneck 0.0917018 -11.562 5.26868
head 1.91243 -5.71229 1.54166
lclavicle -1.80532e-14 -6.28883e-15 0
lhumerus -47.4725 -37.775 110.353
lradius 60.4326 0 0
lwrist 20.4495 0 0
lhand 9.82578 12.0535 0
lfingers 7.12502 0 0
lthumb 34.9538 38.5575 0
rclavicle -1.80532e-14 -6.28883e-15 0
rhumerus -38.4875 28.0106 -66.7828
rradius 60.4412 0 0
rwrist 25.4255 0 0
rhand -7.99234 -3.62396 0
rfingers 7.12502 0 0
rthumb 17.8818 -752.382 0
278
root 8.0015 15.8195 -24.7986 10.7466 52.1847 6.61948
lfemur -26.6363 20.6622 -17.3639
ltibia 47.9536 0 0
lfoot -17.1962 -15.8628 0
ltoes 54.591 0 0
rfemur -34.2819 -7.60753 18.5038
rtibia 57.3923 0 0
rfoot 15.6941 -4.02959 0
rtoes 3.70764 0 0
lowerback 5.19168 -2.88033 -4.29072
upperback 1.9906 -4.0747 -0.384473
thorax -0.531526 -2.04008 2.21636
lowerneck -7.84203 -8.83905 -1.99903
upperneck -0.000414909 -11.6335 5.45037
head 1.88506 -5.74659 1.6029
lclavicle -1.85647e-14 -6.55628e-15 0
lhumerus -47.3036 -37.9335 109.98
lradius 60.3889 0 0
lwrist 20.4809 0 0
lhand 9.95041 12.0335 0
lfingers 7.12502 0 0
lthumb 35.072 38.5095 0
rclavicle -1.85647e-14 -6.55628e-15 0
rhumerus -38.3357 29.4425 -66.8549
rradius 61.1346 0 0
rwrist 24.7091 0 0
rhand -7.54355 -3.69374 0
rfingers 7.12502 0 0
rthumb 18.3131 -752.408 0
279
root 8.03716 15.8065 -24.7639 10.8003 52.3911 6.9368
lfemur -26.2811 20.607 -17.384
ltibia 48.0971 0 0
lfoot -17.2001 -16.2093 0
ltoes 54.729 0 0
rfemur -34.9972 -8.07382 19.156
rtibia 57.4056 0 0
rfoot 15.7463 -3.2923 0
rtoes 3.56935 0 0
lowerback 5.34847 -2.89131 -4.43636
upperback 2.09869 -4.09975 -0.512944
thorax -0.503706 -2.05352 2.17131
lowerneck -7.76322 -8.89153 -2.00837
upperneck -0.0925316 -11.7049 5.63206
head 1.8577 -5.78088 1.66414
lclavicle -1.90761e-14 -6.82374e-15 0
lhumerus -47.1347 -38.092 109.606
lradius 60.3452 0 0
lwrist 20.5123 0 0
lhand 10.075 12.0136 0
lfingers 7.12502 0 0
lthumb 35.1902 38.4615 0
rclavicle -1.90761e-14 -6.82374e-15 0
rhumerus -38.184 30.8743 -66.927
rradius 61.8281 0 0
rwrist 23.9926 0 0
rhand -7.09475 -3.76352 0
rfingers 7.12502 0 0
rthumb 18.7444 -752.434 0
280
root 8.07281 15.7936 -24.7291 10.854 52.5975 7.25411
lfemur -25.9258 20.5519 -17.404
ltibia 48.2406 0 0
lfoot -17.2041 -16.5558 0
ltoes 54.8669 0 0
rfemur -35.7126 -8.54012 19.8081
rtibia 57.4189 0 0
rfoot 15.7986 -2.555 0
rtoes 3.43106 0 0
lowerback 5.50527 -2.90228 -4.58199
upperback 2.20678 -4.12481 -0.641416
thorax -0.475887 -2.06697 2.12626
lowerneck -7.68441 -8.94401 -2.01772
upperneck -0.184648 -11.7764 5.81375
head 1.83033 -5.81517 1.72538
lclavicle -1.95875e-14 -7.09119e-15 0
lhumerus -46.9659 -38.2505 109.233
lradius 60.3016 0 0
lwrist 20.5436 0 0
lhand 10.1997 11.9937 0
lfingers 7.12502 0 0
lthumb 35.3083 38.4136 0
rclavicle -1.95875e-14 -7.09119e-15 0
rhumerus -38.0323 32.3062 -66.999
rradius 62.5215 0 0
rwrist 23.2762 0 0
rhand -6.64596 -3.83329 0
rfingers 7.12502 0 0
rthumb 19.1756 -752.459 0
281
root 8.10847 15.7806 -24.6944 10.9076 52.8039 7.57143
lfemur -25.5706 20.4967 -17.4241
ltibia 48.3841 0 0
lfoot -17.208 -16.9022 0
ltoes 55.0049 0 0
rfemur -36.4279 -9.00641 20.4603
rtibia 57.4322 0 0
rfoot 15.8508 -1.81771 0
rtoes 3.29277 0 0
lowerback 5.66206 -2.91326 -4.72763
upperback 2.31487 -4.14986 -0.769887
thorax -0.448067 -2.08041 2.08121
lowerneck -7.6056 -8.99649 -2.02706
upperneck -0.276765 -11.8478 5.99544
head 1.80297 -5.84946 1.78662
lclavicle -2.00989e-14 -7.35865e-15 0
lhumerus -46.797 -38.409 108.86
lradius 60.2579 0 0
lwrist 20.575 0 0
lhand 10.3243 11.9738 0
lfingers 7.12502 0 0
lthumb 35.4265 38.3656 0
rclavicle -2.00989e-14 -7.35865e-15 0
rhumerus -37.8806 33.7381 -67.0711
rradius 63.215 0 0
rwrist 22.5598 0 0
rhand -6.19716 -3.90307 0
rfingers 7.12502 0 0
rthumb 19.6069 -752.485 0
282
root 8.14413 15.7676 -24.6596 10.9613 53.0103 7.88875
lfemur -25.2154 20.4416 -17.4441
ltibia 48.5276 0 0
lfoot -17.2119 -17.2487 0
ltoes 55.1428 0 0
rfemur -37.1432 -9.47271 21.1124
rtibia 57.4455 0 0
rfoot 15.903 -1.08041 0
rtoes 3.15448 0 0
lowerback 5.81886 -2.92423 -4.87326
upperback 2.42296 -4.17492 -0.898359
thorax -0.420248 -2.09386 2.03616
lowerneck -7.52679 -9.04897 -2.03641
upperneck -0.368882 -11.9193 6.17713
head 1.7756 -5.88376 1.84785
lclavicle -2.06103e-14 -7.6261e-15 0
lhumerus -46.6281 -38.5675 108.487
lradius 60.2142 0 0
lwrist 20.6064 0 0
lhand 10.4489 11.9538 0
lfingers 7.12502 0 0
lthumb 35.5447 38.3176 0
rclavicle -2.06103e-14 -7.6261e-15 0
rhumerus -37.7288 35.17 -67.1432
rradius 63.9084 0 0
rwrist 21.8433 0 0
rhand -5.74837 -3.97285 0
rfingers 7.12502 0 0
rthumb 20.0381 -752.511 0
283
root 8.17979 15.7546 -24.6249 11.015 53.2167 8.20607
lfemur -24.8601 20.3864 -17.4642
ltibia 48.6712 0 0
lfoot -17.2158 -17.5952 0
ltoes 55.2808 0 0
rfemur -37.8586 -9.939 21.7646
rtibia 57.4588 0 0
rfoot 15.9552 -0.343113 0
rtoes 3.01619 0 0
lowerback 5.97565 -2.93521 -5.01889
upperback 2.53105 -4.19997 -1.02683
thorax -0.392429 -2.1073 1.99111
lowerneck -7.44798 -9.10145 -2.04575
upperneck -0.460999 -11.9907 6.35882
head 1.74824 -5.91805 1.90909
lclavicle -2.11218e-14 -7.89356e-15 0
lhumerus -46.4593 -38.7261 108.113
lradius 60.1705 0 0
lwrist 20.6378 0 0
lhand 10.5735 11.9339 0
lfingers 7.12502 0 0
lthumb 35.6628 38.2696 0
rclavicle -2.11218e-14 -7.89356e-15 0
rhumerus -37.5771 36.6018 -67.2152
rradius 64.6019 0 0
rwrist 21.1269 0 0
rhand -5.29957 -4.04263 0
rfingers 7.12502 0 0
rthumb 20.4694 -752.536 0
284
root 8.21544 15.7416 -24.5901 11.0687 53.4231 8.52339
lfemur -24.5049 20.3313 -17.4843
ltibia 48.8147 0 0
lfoot -17.2197 -17.9417 0
ltoes 55.4187 0 0
rfemur -38.5739 -10.4053 22.4167
rtibia 57.4721 0 0
rfoot 16.0074 0.394184 0
rtoes 2.8779 0 0
lowerback 6.13244 -2.94618 -5.16453
upperback 2.63914 -4.22502 -1.1553
thorax -0.364609 -2.12075 1.94606
lowerneck -7.36917 -9.15393 -2.0551
upperneck -0.553115 -12.0621 6.54051
head 1.72087 -5.95234 1.97033
lclavicle -2.16332e-14 -8.16102e-15 0
lhumerus -46.2904 -38.8846 107.74
lradius 60.1268 0 0
lwrist 20.6692 0 0
lhand 10.6982 11.914 0
lfingers 7.12502 0 0
lthumb 35.781 38.2216 0
rclavicle -2.16332e-14 -8.16102e-15 0
rhumerus -37.4254 38.0337 -67.2873
rradius 65.2953 0 0
rwrist 20.4105 0 0
rhand -4.85078 -4.11241 0
rfingers 7.12502 0 0
rthumb 20.9006 -752.562 0
285
root 8.2511 15.7286 -24.5554 11.1224 53.6296 8.8407
lfemur -24.1497 20.2761 -17.5043
ltibia 48.9582 0 0
lfoot -17.2237 -18.2882 0
ltoes 55.5567 0 0
rfemur -39.2892 -10.8716 23.0689
rtibia 57.4854 0 0
rfoot 16.0596 1.13148 0
rtoes 2.73961 0 0
lowerback 6.28924 -2.95716 -5.31016
upperback 2.74724 -4.25008 -1.28377
thorax -0.33679 -2.1342 1.90101
lowerneck -7.29035 -9.20642 -2.06444
upperneck -0.645232 -12.1336 6.7222
head 1.6935 -5.98664 2.03157
lclavicle -2.21446e-14 -8.42847e-15 0
lhumerus -46.1215 -39.0431 107.367
lradius 60.0831 0 0
lwrist 20.7006 0 0
lhand 10.8228 11.8941 0
lfingers 7.12502 0 0
lthumb 35.8992 38.1736 0
rclavicle -2.21446e-14 -8.42847e-15 0
rhumerus -37.2737 39.4656 -67.3594
rradius 65.9887 0 0
rwrist 19.6941 0 0
rhand -4.40199 -4.18218 0
rfingers 7.12502 0 0
rthumb 21.3319 -752.588 0
